<?xml version="1.0" encoding="UTF-8" standalone="no"?>
<!DOCTYPE svg PUBLIC "-//W3C//DTD SVG 1.1//EN" "http://www.w3.org/Graphics/SVG/1.1/DTD/svg11.dtd">
<svg width="100%" height="100%" viewBox="0 0 512 512" version="1.1" xmlns="http://www.w3.org/2000/svg" xmlns:xlink="http://www.w3.org/1999/xlink" xml:space="preserve" xmlns:serif="http://www.serif.com/" style="fill-rule:evenodd;clip-rule:evenodd;stroke-linejoin:round;stroke-miterlimit:2;">
    <g transform="matrix(4.128846,0,0,3.928199,-613.94765,-563.404237)">
        <path d="M243.187,218.47L250.077,218.47C258.846,218.47 256.967,210.899 256.967,204.645C256.967,201.353 255.714,198.061 252.582,197.732C248.824,197.732 248.198,198.061 245.379,198.061C242.247,198.061 239.742,197.732 239.742,194.44C239.742,188.844 250.39,182.918 250.39,178.639C250.39,172.714 242.247,165.472 239.115,165.472C233.791,165.472 227.527,176.006 224.082,176.006C216.566,176.006 225.648,151.975 214.687,151.975C210.929,151.975 210.929,151.317 207.17,151.317C202.159,151.317 201.846,156.913 201.846,161.192L201.846,168.763C201.846,171.726 202.159,176.335 197.775,176.335C191.511,176.335 189.005,165.472 182.429,165.472C176.165,165.472 171.154,176.664 171.154,178.31C171.154,184.893 182.742,188.185 182.742,193.123C182.742,202.34 164.264,195.757 164.264,204.645C164.264,214.849 164.577,218.47 178.67,219.458C180.549,219.458 181.802,220.775 181.802,222.42C181.802,227.358 171.154,236.246 171.154,239.538C171.154,245.793 182.115,250.73 182.429,250.73C185.56,250.73 194.643,241.184 196.835,241.184C205.604,241.184 198.088,265.873 207.17,265.873C213.747,265.873 221.264,266.202 221.264,256.326L221.264,248.755C221.264,246.122 220.637,241.513 224.396,241.513C230.033,241.513 233.165,252.376 238.802,252.376C245.066,252.376 250.39,243.159 250.39,241.513C250.39,235.259 239.115,228.346 239.115,224.396C239.115,221.762 240.681,218.799 243.187,218.47Z" style="fill:white;fill-rule:nonzero;"/>
    </g>
    <g id="Layer1">
    </g>
</svg>
